<?xml version="1.0" encoding="UTF-8"?><svg id="Layer_2" xmlns="http://www.w3.org/2000/svg" viewBox="0 0 192 192"><defs><style>.cls-1{fill:#fff;}.cls-2{fill:#df2b46;}.cls-3{fill:#4a0d3a;}.cls-4{fill:#5d1049;}</style></defs><rect class="cls-4" width="192" height="192"/><polygon class="cls-3" points="192 64.51 143.25 29.25 130.69 48.94 104.62 29.25 89.22 29.25 84.94 38.81 79.48 56.59 110.65 79.93 97.47 88.29 82.72 77.09 68.25 70.5 48.2 88.29 38.14 111.08 60.84 148.7 115.85 192 192 192 192 64.51"/><g><g><path class="cls-2" d="M148.52,77.95c7.29,7.29,10.91,16.76,10.91,26.28s-3.62,18.99-10.91,26.28l-26.23,26.23h-.05c-14.53,14.53-37.98,14.53-52.52,0-7.24-7.24-10.87-16.76-10.87-26.28,0-1.35,.09-2.69,.23-3.99,.88-8.13,4.41-16.02,10.63-22.24l16.44-16.39,9.84,9.84-16.44,16.39c-4.55,4.5-6.78,10.45-6.78,16.39s2.23,11.89,6.78,16.44c9.1,9.1,23.73,9.1,32.83,0h.05l20.43-20.43,5.8-5.8c4.55-4.55,6.83-10.49,6.83-16.44s-2.28-11.89-6.83-16.44c-9.05-9.05-23.77-9.05-32.83,0v.05l-9.84-9.84v-.05c14.49-14.49,38.03-14.49,52.52,0Z"/><path class="cls-1" d="M132.87,126.47l-20.43,20.43h-.05c9.05-9.05,9.05-23.77,0-32.83l-16.39-16.39-9.84-9.84-.05-.05c-4.5-4.5-10.45-6.78-16.39-6.78s-11.89,2.28-16.44,6.78c-9.05,9.1-9.05,23.77,0,32.87l5.8,5.8c-.14,1.3-.23,2.65-.23,3.99,0,9.52,3.62,19.04,10.87,26.28l-26.28-26.23c-14.49-14.53-14.49-38.03,0-52.56,7.24-7.24,16.76-10.87,26.28-10.87s18.99,3.62,26.23,10.87l.05,.05,9.84,9.84,16.39,16.39c6.27,6.22,9.8,14.12,10.63,22.24Z"/></g><circle class="cls-2" cx="134.05" cy="42.95" r="18.57"/><circle class="cls-1" cx="92.08" cy="42.95" r="18.57"/></g></svg>