<?xml version="1.0" encoding="UTF-8"?><svg xmlns="http://www.w3.org/2000/svg" viewBox="0 0 512 512"><defs><style>.cls-1{fill:#fff;}.cls-2{fill:#df2b46;}.cls-3{fill:#4a0d3a;}.cls-4{fill:#5d1049;}</style></defs><g id="Layer_2"><rect class="cls-4" width="512" height="512"/></g><g id="Layer_4"><polygon class="cls-3" points="512 172.03 382 78 348.5 130.5 278.99 78 237.92 78 226.5 103.5 211.94 150.91 295.07 213.15 259.93 235.45 220.59 205.59 182 188 128.54 235.45 101.71 296.22 162.25 396.53 308.93 512 512 512 512 172.03"/><g><g><path class="cls-2" d="M396.07,207.86c19.44,19.44,29.1,44.7,29.1,70.08s-9.66,50.64-29.1,70.08l-69.96,69.96h-.12c-38.76,38.76-101.28,38.76-140.04,0-19.32-19.32-28.97-44.7-28.97-70.08,0-3.59,.25-7.18,.62-10.65,2.35-21.67,11.76-42.72,28.35-59.31l43.83-43.71,26.25,26.25-43.83,43.71c-12.13,12.01-18.08,27.86-18.08,43.71s5.94,31.7,18.08,43.83c24.27,24.27,63.27,24.27,87.54,0h.12l54.48-54.48,15.48-15.48c12.13-12.13,18.2-27.98,18.2-43.83s-6.07-31.7-18.2-43.83c-24.14-24.14-63.4-24.14-87.54,0v.12l-26.25-26.25v-.12c38.63-38.63,101.41-38.63,140.04,0Z"/><path class="cls-1" d="M354.34,337.26l-54.48,54.48h-.12c24.14-24.14,24.14-63.4,0-87.54l-43.71-43.71-26.25-26.25-.12-.12c-12.01-12.01-27.86-18.08-43.71-18.08s-31.7,6.07-43.83,18.08c-24.14,24.27-24.14,63.4,0,87.66l15.48,15.48c-.37,3.47-.62,7.06-.62,10.65,0,25.38,9.66,50.77,28.97,70.08l-70.08-69.96c-38.63-38.76-38.63-101.41,0-140.16,19.32-19.32,44.7-28.97,70.08-28.97s50.64,9.66,69.96,28.97l.12,.12,26.25,26.25,43.71,43.71c16.72,16.59,26.13,37.64,28.35,59.31Z"/></g><circle class="cls-2" cx="357.48" cy="114.53" r="49.53"/><circle class="cls-1" cx="245.54" cy="114.53" r="49.53"/></g></g></svg>